# xmcd
#
# Track frame offsets:
#	150
#	15925
#	34747
#	49323
#	66637
#	85484
#	101424
#	114004
#	140156
#	155544
#	169566
#	191764
#	213734
#	243697
#
# Disc length: 4440 seconds
# Revision: 1
# Processed by: cddbd v1.5.2PL0 Copyright (c) Steve Scherf et al.
# Submitted via: dBpowerAMP V12.0
#
DISCID=c711560e
DTITLE=John Hammond - Ready For Love
DYEAR=2003
DGENRE=Blues
TTITLE0=Slick Crown Vic
TTITLE1=No Chance
TTITLE2=Easy Loving
TTITLE3=Gin Soaked Boy
TTITLE4=Spider And The Fly
TTITLE5=Can't Remember To Forget
TTITLE6=Color Of The Blues
TTITLE7=Same Thing
TTITLE8=I Brought The Rain
TTITLE9=Comes Love
TTITLE10=Low Side Of The Road
TTITLE11=Money Honey
TTITLE12=Just One More
TTITLE13=DATA
EXTD=
EXTT0=
EXTT1=
EXTT2=
EXTT3=
EXTT4=
EXTT5=
EXTT6=
EXTT7=
EXTT8=
EXTT9=
EXTT10=
EXTT11=
EXTT12=
EXTT13=
PLAYORDER=
